<svg xmlns="http://www.w3.org/2000/svg" width="319" height="102" viewBox="0 0 319 102"><defs><clipPath id="a" clipPathUnits="userSpaceOnUse"><path d="M0 102h319V0H0z"/></clipPath></defs><g clip-path="url(#a)"><path d="m259.82 32.38 22.12 50.53 26.11-53.78 8.45 3.25q1.48.62 2.03 2.16.47 1.47.47 3.01 0 .7-.23 1.4-.08.69-.39 1.23L288.77 102h-14.33l-30.42-69.62zM7.36 0h7.19v41.8q3.68-4.63 8.6-7.03 5-2.39 9.77-2.39 9.93.07 17.75 4.94 7.9 4.87 12.43 12.67 4.54 7.96 4.62 17.24-.08 9.27-4.62 17.15-4.45 7.88-12.35 12.75-7.82 4.79-17.91 4.87-4.69 0-9.69-2.4-4.92-2.39-8.6-6.95l.03 3.45c-.01 1.82-.64 3.11-2.04 4.26-1.38 1.12-3.08 1.59-5.26 1.64H.01V6.88q.08-3.09 2.03-4.95Q3.99.08 7.36 0m5.47 66.61q0 10.2 5.08 15.92 5.24 5.79 15.17 5.95 5.86-.08 10.32-3.09 4.46-3.02 7.04-7.89 2.58-4.86 2.58-10.43 0-5.49-2.58-10.35-2.58-4.72-7.12-7.73-4.45-2.93-10.24-3.01-9.38.15-14.78 5.64-5.39 5.48-5.47 14.99m113.45-21.1q2.81-3.4 6.25-6.49 3.44-2.93 7.98-4.71 4.46-1.93 10.55-1.93 11.42 0 18.38 4.48 7.03 4.48 10.4 12.52 3.2 7.95 3.2 18.7l-.02 33.92h-14.6V68.08q.08-6.96-1.25-11.9-1.25-4.95-5.08-7.58-3.76-2.62-11.03-2.62t-11.02 2.32q-3.83 2.24-5.16 7.1-1.33 4.95-1.25 12.68L133.6 102h-14.64l.05-33.92q.08-7.73-1.25-12.68-1.33-4.86-5.16-7.1-3.76-2.32-11.03-2.32-7.19 0-11.02 2.62-3.76 2.63-5.08 7.58-1.33 4.94-1.26 11.9L84.19 102H69.54l.05-62.9q.08-2.78 2.19-4.71 2.04-2.01 5.16-2.01h7.27v7.34q3.44-3.17 7.82-5.26 4.3-2.08 9.54-2.08 6.1 0 10.56 1.93 4.61 1.78 8.05 4.71 3.44 3.09 6.1 6.49m93.59-13.13q9.93.07 17.67 4.94 7.9 4.79 12.35 12.6 4.54 7.88 4.61 17.23-.07 9.27-4.61 17.15-4.45 7.96-12.35 12.83-7.82 4.79-17.91 4.87-10.01-.08-17.82-4.87-7.75-4.87-12.28-12.75t-4.61-17.15q.08-9.28 4.61-17.24 4.61-7.8 12.43-12.67t17.91-4.94m0 13.6q-5.87.08-10.48 3.01-4.53 3.02-7.12 7.8-2.58 4.87-2.65 10.51.07 5.57 2.65 10.44 2.59 4.71 7.12 7.65 4.54 3.01 10.4 3.09 5.94-.08 10.4-3.09 4.53-2.94 7.11-7.89 2.51-4.87 2.58-10.35-.07-5.56-2.65-10.36-2.59-4.78-7.04-7.8-4.54-2.93-10.32-3.01" style="fill:#787e83"/></g></svg>